#!OML:ASF Y:\EmotionMaleHayes\Project 1\Capture day 1\Session 1\Male1.ASF
:FULLY-SPECIFIED
:DEGREES
209
root 47.9105 17.132 -1.58456 226.41 93.7586 238.501
lowerback 11.7335 2.80212 -3.30885
upperback 2.80327 3.43128 0.244935
thorax -3.83855 1.77207 1.60015
lowerneck -24.5086 0.176486 2.26465
upperneck 23.8668 -0.513568 0.0410974
head 11.8982 0.0409069 -0.437757
rclavicle -1.40889e-014 -3.57812e-015
rhumerus -32.236 16.1916 -82.4129
rradius 74.0681
rwrist -11.4969
rhand -20.9615 -24.8884
rfingers 7.12502
rthumb 5.4115 -54.7993
lclavicle -1.40889e-014 -3.57812e-015
lhumerus -55.3955 -18.9484 97.9935
lradius 59.0434
lwrist 19.7932
lhand -30.8949 -21.8914
lfingers 7.12502
lthumb -4.18165 8.04731
rfemur 4.29936 1.10325 17.4495
rtibia 16.6316
rfoot -9.60987 -1.20456
rtoes 17.9335
lfemur 3.50876 4.97692 -17.7947
ltibia 20.4524
lfoot -13.3231 7.49519
ltoes 8.52564
210
root 47.981 17.1001 -1.61462 219.054 93.8542 231.545
lowerback 11.9034 2.80622 -2.92905
upperback 2.95861 3.48795 0.323576
thorax -3.75549 1.79728 1.45716
lowerneck -24.5742 0.289894 2.31654
upperneck 23.6288 -0.386943 0.061138
head 11.8204 0.0994366 -0.417368
rclavicle 3.52594e-014 0
rhumerus -30.7229 17.1309 -82.6665
rradius 74.2707
rwrist -11.8961
rhand -20.6705 -24.9709
rfingers 7.12502
rthumb 5.6925 -54.8745
lclavicle 3.52594e-014 0
lhumerus -56.1475 -19.1794 98.4916
lradius 57.5626
lwrist 18.9496
lhand -32.4645 -22.4568
lfingers 7.12502
lthumb -5.69719 7.44665
rfemur 5.3852 1.28577 17.6707
rtibia 15.9599
rfoot -10.1606 -0.81344
rtoes 18.3375
lfemur 4.15206 4.51572 -17.7807
ltibia 20.6593
lfoot -14.145 8.03786
ltoes 10.4251
211
root 47.8546 17.0993 -1.55219 139.584 95.5421 152.01
lowerback 14.4711 2.8427 1.99894
upperback 2.31502 4.32197 2.10656
thorax -5.66512 2.14986 0.265838
lowerneck -24.5106 0.416488 2.58699
upperneck 23.4076 -0.254479 -0.144999
head 11.7242 0.150842 -0.516673
rclavicle 3.67006e-014 1.17283e-014
rhumerus -29.508 17.8591 -82.9831
rradius 74.5669
rwrist -11.8466
rhand -20.3777 -24.9013
rfingers 7.12502
rthumb 5.97516 -54.7971
lclavicle 3.67006e-014 1.17283e-014
lhumerus -56.7017 -18.9602 98.3351
lradius 57.022
lwrist 20.4165
lhand -30.8901 -21.3699
lfingers 7.12502
lthumb -4.17702 8.56886
rfemur 3.87269 5.42525 26.515
rtibia 17.507
rfoot -11.1233 -4.08522
rtoes 18.8393
lfemur 2.89328 5.27615 -9.35231
ltibia 22.6262
lfoot -14.0797 8.68727
ltoes 4.58964
212
root 48.0676 17.0475 -1.65881 198.58 94.3476 211.048
lowerback 12.5128 2.95442 -1.85776
upperback 2.45912 3.79367 0.559173
thorax -4.57771 1.94034 1.00786
lowerneck -24.0889 0.347765 2.56191
upperneck 23.3339 -0.338655 -0.0891427
head 11.6149 0.119095 -0.505065
rclavicle 1.83565e-014 7.95139e-016
rhumerus -28.868 18.5207 -83.4515
rradius 74.836
rwrist -11.513
rhand -19.8391 -24.734
rfingers 7.12502
rthumb 6.49513 -54.6145
lclavicle 1.83565e-014 7.95139e-016
lhumerus -57.8656 -18.8356 98.6599
lradius 56.1447
lwrist 20.6565
lhand -30.6129 -20.5182
lfingers 7.12502
lthumb -3.90932 9.4257
rfemur 5.80902 1.86796 18.7931
rtibia 15.4558
rfoot -10.0544 -0.415557
rtoes 17.4921
lfemur 4.62219 4.98333 -16.6891
ltibia 20.7742
lfoot -14.3848 8.87165
ltoes 4.28229
213
root 48.1131 17.0298 -1.69215 193.326 94.3483 205.871
lowerback 12.5721 2.84864 -1.2342
upperback 2.54505 3.74014 0.609596
thorax -4.48264 1.9067 0.720229
lowerneck -24.3224 0.322624 2.43193
upperneck 23.0899 -0.412089 0.163732
head 11.5662 0.102317 -0.402121
rclavicle 1.70706e-014 -5.36719e-015
rhumerus -27.4661 19.1639 -83.6877
rradius 74.9122
rwrist -11.0274
rhand -19.2896 -24.4181
rfingers 7.12502
rthumb 7.02565 -54.2815
lclavicle 1.70706e-014 -5.36719e-015
lhumerus -58.0739 -18.9284 98.8002
lradius 54.9415
lwrist 21.0198
lhand -30.2087 -19.9188
lfingers 7.12502
lthumb -3.519 10.0319
rfemur 6.21206 1.30355 18.9279
rtibia 15.1124
rfoot -10.0573 0.00290034
rtoes 16.4538
lfemur 4.96477 5.10922 -16.3576
ltibia 20.7122
lfoot -14.4181 8.82998
ltoes 2.91958
214
root 48.1577 17.0226 -1.71023 193.929 94.5264 206.481
lowerback 12.559 2.83292 -1.33487
upperback 2.59133 3.70663 0.590661
thorax -4.431 1.8916 0.764473
lowerneck -24.2862 0.426591 2.41592
upperneck 22.7169 -0.295213 0.277477
head 11.4195 0.161032 -0.337941
rclavicle 1.47287e-014 -1.59028e-015
rhumerus -26.2918 19.7756 -83.9272
rradius 75.0696
rwrist -10.2632
rhand -18.8472 -24.0802
rfingers 7.12502
rthumb 7.45262 -53.929
lclavicle 1.47287e-014 -1.59028e-015
lhumerus -58.2423 -19.0136 98.9398
lradius 53.7329
lwrist 21.0462
lhand -29.8699 -19.5539
lfingers 7.12502
lthumb -3.19179 10.402
rfemur 6.51646 1.22619 18.6378
rtibia 14.9737
rfoot -10.5992 0.360156
rtoes 19.4775
lfemur 5.2272 5.24794 -16.5269
ltibia 20.5026
lfoot -14.2621 8.96333
ltoes 2.80052
215
root 48.2025 17.0264 -1.71362 198.127 94.7508 210.703
lowerback 12.2941 2.82871 -2.03326
upperback 2.79783 3.62206 0.596824
thorax -4.10928 1.85772 1.19512
lowerneck -24.9019 0.371453 2.4822
upperneck 22.7495 -0.389853 0.142926
head 11.5454 0.104046 -0.415345
rclavicle -2.78671e-014 -1.39149e-015
rhumerus -24.8876 20.5458 -84.0037
rradius 75.1639
rwrist -9.41978
rhand -18.539 -23.7167
rfingers 7.12502
rthumb 7.75013 -53.5547
lclavicle -2.78671e-014 -1.39149e-015
lhumerus -58.036 -18.8907 98.946
lradius 52.5287
lwrist 20.6963
lhand -29.7945 -19.3452
lfingers 7.12502
lthumb -3.11896 10.6117
rfemur 6.87302 1.48061 18.1434
rtibia 14.6046
rfoot -10.8353 0.22888
rtoes 19.7698
lfemur 5.46855 5.28596 -16.9815
ltibia 20.3086
lfoot -14.1299 9.11974
ltoes 2.51618
216
root 48.2524 17.0364 -1.72255 194.473 94.7322 207.097
lowerback 12.0826 2.82757 -1.67758
upperback 2.93453 3.67461 0.628173
thorax -3.83281 1.88017 1.03516
lowerneck -24.6389 0.483506 2.50083
upperneck 22.1383 -0.280203 0.310848
head 11.267 0.16654 -0.337818
rclavicle 1.0312e-015 -5.1684e-015
rhumerus -23.7613 20.9818 -84.1689
rradius 75.1874
rwrist -8.70713
rhand -18.5352 -23.1864
rfingers 7.12502
rthumb 7.75375 -53.0242
lclavicle 1.0312e-015 -5.1684e-015
lhumerus -57.8938 -19.1721 98.9286
lradius 51.2613
lwrist 20.4009
lhand -29.5021 -19.0006
lfingers 7.12502
lthumb -2.83661 10.9603
rfemur 7.30722 1.45759 18.3859
rtibia 14.2369
rfoot -10.8777 0.346895
rtoes 18.9158
lfemur 5.79752 5.32451 -16.631
ltibia 20.186
lfoot -14.0494 9.18754
ltoes 2.51057
217
root 48.297 17.0572 -1.73444 191.694 94.9441 204.231
lowerback 11.9047 2.90038 -1.55277
upperback 2.93458 3.79125 0.708704
thorax -3.73688 1.93629 1.04011
lowerneck -24.6289 0.324307 2.02706
upperneck 21.8323 -0.473458 0.853624
head 11.151 0.105244 -0.0925328
rclavicle -7.41715e-015 8.54774e-015
rhumerus -22.9717 21.4279 -84.2977
rradius 75.2971
rwrist -7.88229
rhand -18.4866 -22.7215
rfingers 7.12502
rthumb 7.80074 -52.5576
lclavicle -7.41715e-015 8.54774e-015
lhumerus -57.8028 -19.295 99.0264
lradius 49.9146
lwrist 20.2487
lhand -28.9203 -18.7193
lfingers 7.12502
lthumb -2.27476 11.2483
rfemur 7.42585 1.50003 18.4777
rtibia 14.0743
rfoot -10.7412 0.628644
rtoes 17.1796
lfemur 5.98056 5.55371 -16.3875
ltibia 20.0837
lfoot -14.0589 9.19696
ltoes 2.40104
